<?xml version="1.0" encoding="UTF-8" standalone="no"?>
<svg
   xmlns:dc="http://purl.org/dc/elements/1.1/"
   xmlns:cc="http://creativecommons.org/ns#"
   xmlns:rdf="http://www.w3.org/1999/02/22-rdf-syntax-ns#"
   xmlns:svg="http://www.w3.org/2000/svg"
   xmlns="http://www.w3.org/2000/svg"
   version="1.1"
   id="svg2"
   width="24"
   viewBox="0 0 24 24"
   height="24"
   fill="#000000">
  <metadata
     id="metadata12">
    <rdf:RDF>
      <cc:Work
         rdf:about="">
        <dc:format>image/svg+xml</dc:format>
        <dc:type
           rdf:resource="http://purl.org/dc/dcmitype/StillImage" />
        <dc:title></dc:title>
      </cc:Work>
    </rdf:RDF>
  </metadata>
  <defs
     id="defs10" />
  <path
     style="fill:#363636"
     id="path4"
     d="m 12,4 0,-3 4,4 -4,4 0,-3 c -3.31,0 -6,2.69 -6,6 0,1.01 0.25,1.97 0.7,2.8 L 5.24,16.26 C 4.46,15.03 4,13.57 4,12 4,7.58 7.58,4 12,4 Z m 0,14 c 3.31,0 6,-2.69 6,-6 0,-1.01 -0.25,-1.97 -0.7,-2.8 L 18.76,7.74 C 19.54,8.97 20,10.43 20,12 c 0,4.42 -3.58,8 -8,8 l 0,3 -4,-4 4,-4 0,3 z" />
  <path
     style="fill:none"
     id="path6"
     d="M 24,0 0,0 0,24 24,24 Z" />
</svg>
