<?xml version="1.0" encoding="utf-8"?>
<svg version="1.1" xmlns="http://www.w3.org/2000/svg" xmlns:xlink="http://www.w3.org/1999/xlink" x="0px" y="0px" viewBox="0 0 36 36" enable-background="new 0 0 36 36" xml:space="preserve">
	<path class="background" fill="#FFFFFF" d="M36,18c0,9.94-8.06,18-18,18C8.06,36,0,27.94,0,18S8.06,0,18,0C27.94,0,36,8.06,36,18"/>
	<path class="image" fill="#000000" d="M18,2.85C9.64,2.85,2.85,9.64,2.85,18S9.64,33.15,18,33.15S33.15,26.36,33.15,18S26.36,2.85,18,2.85z M18,3.8c7.85,0,14.2,6.35,14.2,14.2S25.85,32.2,18,32.2S3.8,25.85,3.8,18S10.15,3.8,18,3.8z M13.85,11.02v0.47v4.01L9.7,17.27v7.7 h4.15v0h8.3h4.15v-0.48V13.53h-4.15v-2.52H13.85z M14.8,11.97h6.4v12.07h-1.66V19.3h-3.28v4.73H14.8v-8.94V11.97z M22.15,14.48h3.2 v9.55h-3.2V14.48z M13.85,16.53v7.5h-3.2V17.9L13.85,16.53z M17.21,20.25h1.38v3.78h-1.38V20.25z"/>
</svg>
